# xmcd CD database file
#
# Track frame offsets:
#	150
#	22130
#	40925
#	61152
#	80390
#	103120
#	126532
#	153210
#	174822
#	191950
#	213655
#	229760
#	251430
#	272997
#
# Disc length: 4124 seconds
#
# Revision: 2
# Processed by: cddbd v1.4PL0 Copyright (c) Steve Scherf et al.
# Submitted via: CDex 1.40Release
#
DISCID=c5101a0e
DTITLE=Diana Ross - Every Day Is A New Day
DYEAR=1999
DGENRE=Blues
TTITLE0=He Lives In You
TTITLE1=Love Is All That Matters
TTITLE2=Until We Meet Again
TTITLE3=Got To Be Free
TTITLE4=Not Over You Yet
TTITLE5=So They Say
TTITLE6=Every Day Is A New Day
TTITLE7=Sugarfree
TTITLE8=Someone That Tou Loved Before
TTITLE9=Hope Is An Open Window
TTITLE10=Carry On
TTITLE11=Drop The Mask
TTITLE12=Free(I'm Gone)
TTITLE13=Until We Meet Again
EXTD=YEAR: 1999 ID3G: 0
EXTT0=
EXTT1=
EXTT2=
EXTT3=
EXTT4=
EXTT5=
EXTT6=
EXTT7=
EXTT8=
EXTT9=
EXTT10=
EXTT11=
EXTT12=
EXTT13=
PLAYORDER=
